<?xml version="1.0" standalone="no"?>
<!DOCTYPE svg PUBLIC "-//W3C//DTD SVG 20010904//EN"
 "http://www.w3.org/TR/2001/REC-SVG-20010904/DTD/svg10.dtd">
<svg version="1.0" xmlns="http://www.w3.org/2000/svg"
 width="552.000000pt" height="552.000000pt" viewBox="0 0 552.000000 552.000000"
 preserveAspectRatio="xMidYMid meet">
<metadata>
Created by potrace 1.14, written by Peter Selinger 2001-2017
</metadata>
<g transform="translate(0.000000,552.000000) scale(0.100000,-0.100000)"
fill="#000000" stroke="none">
<path d="M4582 3742 c-20 -13 -22 -49 -4 -65 10 -9 49 -18 92 -22 321 -30 569
-299 579 -627 1 -47 30 -67 68 -47 24 13 25 16 19 96 -24 329 -273 603 -600
662 -70 13 -136 14 -154 3z"/>
<path d="M4580 3508 c-24 -23 -24 -27 -4 -56 10 -15 25 -22 47 -22 39 0 132
-23 168 -42 54 -28 118 -84 151 -133 45 -65 65 -118 74 -194 9 -83 40 -113 78
-75 35 34 6 189 -55 290 -19 31 -60 80 -92 110 -85 79 -165 116 -284 132 -55
8 -65 6 -83 -10z"/>
<path d="M4592 3289 c-12 -5 -22 -12 -23 -16 0 -4 -2 -16 -4 -26 -4 -20 30
-47 61 -47 32 0 86 -25 111 -52 27 -28 53 -89 53 -121 0 -13 9 -32 20 -42 17
-15 24 -16 45 -7 20 9 25 19 25 50 0 88 -54 180 -134 227 -50 29 -123 45 -154
34z"/>
<path d="M271 3124 l-23 -16 4 -367 c4 -343 6 -370 26 -432 43 -131 105 -213
206 -273 56 -33 124 -61 177 -71 44 -9 83 -15 124 -20 45 -6 256 -6 295 0 14
1 46 6 73 9 68 8 194 52 249 87 98 63 163 160 200 297 18 69 20 113 23 397 1
176 -1 336 -6 356 -10 41 -31 54 -60 39 -23 -13 -21 20 -24 -375 -1 -176 -6
-336 -9 -355 -24 -125 -61 -203 -121 -259 -64 -59 -127 -88 -250 -117 -56 -13
-367 -13 -431 1 -168 35 -255 89 -317 197 -56 97 -60 124 -66 519 -5 289 -9
369 -20 382 -17 21 -21 21 -50 1z"/>
<path d="M3297 3049 c-29 -22 -30 -65 -2 -85 50 -37 124 38 77 78 -30 26 -50
28 -75 7z"/>
<path d="M3798 3053 c-9 -11 -13 -56 -13 -157 l0 -141 -55 -3 c-57 -3 -77 -17
-58 -40 8 -9 29 -12 62 -11 l50 3 2 -259 c0 -143 4 -276 9 -295 29 -130 122
-200 265 -200 130 0 314 89 266 129 -11 9 -34 3 -102 -26 -76 -31 -100 -37
-160 -37 -88 1 -129 22 -164 85 -25 44 -25 47 -28 322 l-3 277 43 0 c24 1 107
1 186 1 117 1 144 4 149 16 12 30 -15 35 -196 35 l-181 1 0 148 c0 87 -4 150
-10 154 -22 14 -49 13 -62 -2z"/>
<path d="M4580 3057 c-36 -18 -36 -75 1 -96 24 -13 29 -13 53 2 34 22 36 69 4
91 -27 19 -26 19 -58 3z"/>
<path d="M2315 2770 c-110 -26 -190 -76 -236 -149 -14 -22 -15 -19 -16 49 -2
74 -13 100 -43 100 -41 0 -42 -15 -43 -393 0 -199 3 -372 7 -384 9 -29 44 -40
63 -20 12 12 15 56 14 258 0 134 2 261 5 281 4 24 20 53 45 82 71 80 207 127
374 129 123 1 171 -6 224 -34 102 -53 120 -121 121 -458 1 -251 4 -271 41
-271 38 0 43 34 41 290 -1 135 -4 256 -6 270 -3 14 -9 39 -12 55 -19 91 -90
162 -187 191 -86 25 -296 28 -392 4z"/>
<path d="M3299 2754 c-10 -12 -13 -92 -13 -367 -1 -420 -1 -415 30 -423 54
-14 54 -14 54 400 0 284 -3 385 -12 394 -17 17 -43 15 -59 -4z"/>
<path d="M4580 2760 c-13 -8 -15 -63 -17 -386 -1 -232 2 -384 8 -396 14 -25
58 -24 67 3 5 12 8 190 8 395 -1 322 -3 376 -16 384 -19 12 -31 12 -50 0z"/>
</g>
</svg>
